<svg xmlns="http://www.w3.org/2000/svg" viewBox="0 0 900 600" preserveAspectRatio="xMidYMid slice" role="img" aria-label="Dhaka chamber — Mughal arched colonnade">
  <defs>
    <linearGradient id="dhakaLight" x1="0" y1="0" x2="1" y2="0.3">
      <stop offset="0%" stop-color="#B08D57" stop-opacity="0.22"/>
      <stop offset="60%" stop-color="#B08D57" stop-opacity="0"/>
    </linearGradient>
  </defs>
  <rect width="900" height="600" fill="#0B1E3F"/>
  <rect width="900" height="600" fill="url(#dhakaLight)"/>

  <g stroke="#F5F1EA" stroke-width="1.6" fill="none" stroke-opacity="0.78" stroke-linecap="round">
    <path d="M 130 480 L 130 280 Q 130 180, 230 180 Q 330 180, 330 280 L 330 480"/>
    <path d="M 154 480 L 154 296 Q 154 210, 230 210 Q 306 210, 306 296 L 306 480"/>

    <path d="M 370 480 L 370 280 Q 370 180, 470 180 Q 570 180, 570 280 L 570 480"/>
    <path d="M 394 480 L 394 296 Q 394 210, 470 210 Q 546 210, 546 296 L 546 480"/>

    <path d="M 610 480 L 610 280 Q 610 180, 710 180 Q 810 180, 810 280 L 810 480"/>
    <path d="M 634 480 L 634 296 Q 634 210, 710 210 Q 786 210, 786 296 L 786 480"/>

    <line x1="80" y1="480" x2="860" y2="480"/>
    <line x1="60" y1="498" x2="880" y2="498"/>
    <line x1="100" y1="160" x2="840" y2="160"/>
    <line x1="100" y1="172" x2="840" y2="172"/>
  </g>
</svg>
