<svg xmlns="http://www.w3.org/2000/svg" viewBox="0 0 900 600" preserveAspectRatio="xMidYMid slice" role="img" aria-label="London chamber — Victorian terraced houses">
  <defs>
    <linearGradient id="londonLight" x1="0" y1="0" x2="1" y2="0.4">
      <stop offset="0%" stop-color="#B08D57" stop-opacity="0.18"/>
      <stop offset="55%" stop-color="#B08D57" stop-opacity="0"/>
    </linearGradient>
  </defs>
  <rect width="900" height="600" fill="#0B1E3F"/>
  <rect width="900" height="600" fill="url(#londonLight)"/>

  <g stroke="#F5F1EA" stroke-width="1.6" fill="none" stroke-opacity="0.78" stroke-linecap="round" stroke-linejoin="miter">
    <line x1="80" y1="500" x2="80" y2="160"/>
    <line x1="300" y1="500" x2="300" y2="160"/>
    <line x1="520" y1="500" x2="520" y2="160"/>
    <line x1="740" y1="500" x2="740" y2="160"/>

    <line x1="80" y1="160" x2="740" y2="160"/>
    <line x1="80" y1="172" x2="740" y2="172"/>

    <line x1="120" y1="110" x2="120" y2="160"/>
    <line x1="160" y1="110" x2="160" y2="160"/>
    <line x1="120" y1="110" x2="160" y2="110"/>

    <line x1="340" y1="110" x2="340" y2="160"/>
    <line x1="380" y1="110" x2="380" y2="160"/>
    <line x1="340" y1="110" x2="380" y2="110"/>

    <line x1="560" y1="110" x2="560" y2="160"/>
    <line x1="600" y1="110" x2="600" y2="160"/>
    <line x1="560" y1="110" x2="600" y2="110"/>

    <rect x="118" y="220" width="58" height="78"/>
    <rect x="200" y="220" width="58" height="78"/>
    <rect x="118" y="340" width="58" height="78"/>
    <rect x="200" y="340" width="58" height="78"/>
    <rect x="160" y="445" width="50" height="55"/>

    <rect x="338" y="220" width="58" height="78"/>
    <rect x="420" y="220" width="58" height="78"/>
    <rect x="338" y="340" width="58" height="78"/>
    <rect x="420" y="340" width="58" height="78"/>
    <rect x="380" y="445" width="50" height="55"/>

    <rect x="558" y="220" width="58" height="78"/>
    <rect x="640" y="220" width="58" height="78"/>
    <rect x="558" y="340" width="58" height="78"/>
    <rect x="640" y="340" width="58" height="78"/>
    <rect x="600" y="445" width="50" height="55"/>

    <line x1="40" y1="500" x2="780" y2="500"/>
    <line x1="20" y1="518" x2="800" y2="518"/>
  </g>
</svg>
