<?xml version="1.0" encoding="UTF-8"?>
<svg width="57px" height="20px" viewBox="0 0 57 20" version="1.1" xmlns="http://www.w3.org/2000/svg" xmlns:xlink="http://www.w3.org/1999/xlink">
    <title>GAZI &amp; ASSOCIATES</title>
    <g id="Page-1" stroke="none" stroke-width="1" fill="none" fill-rule="evenodd">
        <g id="Group" transform="translate(-191, -12)" fill="#0B1E3F" fill-rule="nonzero">
            <g id="GAZI-&amp;-ASSOCIATES" transform="translate(191, 12.8655)">
                <path d="M5.48717031,4.95387292 L5.48717031,6.60039242 L8.46091115,6.60039242 C8.09427787,7.62305433 6.98091433,8.30232505 5.69975267,8.30232505 C3.91151175,8.30232505 2.7364993,7.02173018 2.7364993,5.18572898 C2.7364993,3.3317291 3.94240691,2.04858335 5.69975267,2.04858335 C6.94690128,2.04858335 7.99691532,2.71467408 8.42207961,3.77886026 L10.6342094,3.77886026 C10.1716307,1.5602112 8.12446461,0 5.65978713,0 C2.72232694,0 0.561641889,2.21468088 0.561641889,5.18572898 C0.561641889,8.15932817 2.78029095,10.3509084 5.69975246,10.3509084 C8.68100451,10.3509084 10.7566567,8.06267405 10.7670023,4.95387271 L5.48717031,4.95387292 Z" id="Path"></path>
                <path d="M18.6054732,10.1344999 L20.9348066,10.1344999 L16.9215392,0.213999665 L14.8949227,0.213999665 L11.0065119,10.1344999 L13.2844004,10.1344999 L13.9650884,8.25357306 L17.9128806,8.25357306 L18.6054732,10.1344999 Z M15.9296308,2.83570452 L17.2378613,6.38285015 L14.6347222,6.38285015 L15.9296308,2.83570452 Z" id="Shape"></path>
                <polygon id="Path" points="24.6649147 8.14274701 28.7654826 0.608268794 28.7654826 0.213999665 21.6666561 0.213999665 21.6666561 2.20589444 25.5676802 2.20589444 21.4282806 9.81505991 21.4282806 10.1344999 28.9304463 10.1344999 28.9304463 8.14274701"></polygon>
                <polygon id="Path" points="30.4572112 10.1344999 32.6035823 10.1344999 32.6035823 0.213999665 30.4572112 0.213999665"></polygon>
                <path d="M5.21607753,18.1344999 C4.90169884,17.7753373 4.60643231,17.4385262 4.33141169,17.1235807 C4.64392766,16.6737163 4.83002812,16.1051299 4.85602393,15.4524825 L3.85992472,15.4524825 C3.83562962,15.7758502 3.75545583,16.0669056 3.63017407,16.3147966 C3.28955675,15.9182196 2.99339939,15.5654547 2.7455893,15.2546393 C3.36973054,14.8937761 3.98002353,14.4809213 3.98002353,13.7208895 C3.98002353,12.9155069 3.34397779,12.3765605 2.39420126,12.3765605 C1.43494964,12.3765605 0.792263189,12.9110527 0.792263189,13.7268013 C0.792263189,14.0456339 0.888876655,14.3715932 1.32181544,14.9954105 C0.785865533,15.345179 0.323286818,15.8174759 0.323286818,16.6083625 C0.323286818,17.5897226 1.03812976,18.2302224 2.1012025,18.2302224 C2.69124957,18.2302224 3.2143231,18.0756246 3.64215987,17.7959071 C3.73925934,17.905478 3.83959811,18.0182882 3.94325724,18.1344998 L5.21607753,18.1344999 Z M2.3942015,13.2379835 C2.72186151,13.2379835 2.93833084,13.4359888 2.93833084,13.7275301 C2.93833084,14.0522747 2.61083283,14.2723882 2.18947478,14.5055402 C1.96506896,14.1672713 1.84723769,13.9117678 1.84723769,13.7334417 C1.84723769,13.4374464 2.06370702,13.2379835 2.39420138,13.2379835 L2.3942015,13.2379835 Z M2.21239305,17.2135532 C1.74341656,17.2135532 1.43203435,16.9580497 1.43203435,16.5707857 C1.43203435,16.2390765 1.62736694,15.9904566 1.91008098,15.7722056 C2.18915078,16.1193826 2.53543693,16.5305368 2.96424547,17.0242133 C2.74226918,17.1469035 2.48814237,17.2135532 2.21239293,17.2135532 L2.21239305,17.2135532 Z" id="Shape"></path>
                <path d="M11.1499945,18.1344999 L12.4810422,18.1344999 L10.1877465,12.4656426 L9.02967995,12.4656426 L6.80773088,18.1344999 L8.10938146,18.1344999 L8.49834605,17.0596846 L10.7542273,17.0596846 L11.1499945,18.1344999 Z M9.62094172,13.9637597 L10.368502,15.9907001 L8.88099391,15.9907001 L9.62094172,13.9637597 Z" id="Shape"></path>
                <path d="M14.8634199,18.2471482 C16.0369544,18.2471482 17.0124027,17.653052 17.0124027,16.4287408 C17.0124027,15.1587548 15.9272214,14.8893221 15.0629637,14.6706661 C14.4629556,14.5270821 13.9704129,14.4063354 13.9704129,14.0073288 C13.9704129,13.6362616 14.3731446,13.4676535 14.7706935,13.4676535 C15.2293041,13.4676535 15.6320359,13.6965944 15.6320359,14.184764 L16.8438756,14.184764 C16.8438756,13.0553656 16.1031988,12.3596348 14.8000905,12.3596348 C13.5448435,12.3596348 12.7438339,12.9721953 12.7438339,14.0595631 C12.7438339,15.280959 13.7819637,15.529093 14.6366653,15.7396505 C15.2514125,15.8831536 15.7682503,16.0039003 15.7682503,16.4433987 C15.7682503,16.8660526 15.3169283,17.1097324 14.8553214,17.1097324 C14.3539514,17.1097324 13.9011717,16.8454017 13.9011717,16.2976281 L12.6651178,16.2976281 C12.6651178,17.5161086 13.5617691,18.2471482 14.8634196,18.2471482 L14.8634199,18.2471482 Z" id="Path"></path>
                <path d="M19.8763094,18.2471482 C21.0498439,18.2471482 22.0252922,17.653052 22.0252922,16.4287408 C22.0252922,15.1587548 20.940111,14.8893221 20.0758532,14.6706661 C19.4758451,14.5270821 18.9833024,14.4063354 18.9833024,14.0073288 C18.9833024,13.6362616 19.3860342,13.4676535 19.783583,13.4676535 C20.2421936,13.4676535 20.6449254,13.6965944 20.6449254,14.184764 L21.8567651,14.184764 C21.8567651,13.0553656 21.1160883,12.3596348 19.81298,12.3596348 C18.557733,12.3596348 17.7567234,12.9721953 17.7567234,14.0595631 C17.7567234,15.280959 18.7948532,15.529093 19.6495549,15.7396505 C20.264302,15.8831536 20.7811398,16.0039003 20.7811398,16.4433987 C20.7811398,16.8660526 20.3298179,17.1097324 19.8682109,17.1097324 C19.3668409,17.1097324 18.9140612,16.8454017 18.9140612,16.2976281 L17.6780073,16.2976281 C17.6780073,17.5161086 18.5746586,18.2471482 19.8763092,18.2471482 L19.8763094,18.2471482 Z" id="Path"></path>
                <path d="M25.6990357,18.2581623 C27.4225303,18.2581623 28.7108996,16.9896337 28.7108996,15.2999903 C28.7108996,13.6103469 27.4225303,12.3418186 25.6990357,12.3418186 C23.9689004,12.3418186 22.6738904,13.6169877 22.6738904,15.2999905 C22.6738904,16.9829933 23.9689004,18.2581623 25.6990357,18.2581623 L25.6990357,18.2581623 Z M25.6990357,17.1008245 C24.6889263,17.1008245 23.916666,16.3204658 23.916666,15.3000715 C23.916666,14.2796772 24.6889263,13.4993185 25.6990357,13.4993185 C26.709145,13.4993185 27.468205,14.2715788 27.468205,15.3000715 C27.468205,16.3285642 26.709145,17.1008245 25.6990357,17.1008245 Z" id="Shape"></path>
                <path d="M32.2727235,18.2567043 C33.6766565,18.2567043 34.7773057,17.3194802 35.033538,15.9177338 L33.7974032,15.9177338 C33.5934864,16.6355731 33.0185023,17.0861663 32.2727237,17.0861663 C31.313391,17.0861663 30.5882632,16.3263774 30.5882632,15.3067119 C30.5882632,14.2870464 31.313391,13.5140572 32.2727237,13.5140572 C32.9875666,13.5140572 33.5544523,13.9322569 33.7863896,14.601506 L35.0158838,14.601506 C34.7530918,13.2564482 33.6524426,12.3435192 32.2728047,12.3435192 C30.6081852,12.3435192 29.3455687,13.6194171 29.3455687,15.3067929 C29.3455687,16.9809684 30.6081852,18.2568663 32.2728047,18.2568663 L32.2727235,18.2567043 Z" id="Path"></path>
                <polygon id="Path" points="35.9169889 18.1344999 37.1434867 18.1344999 37.1434867 12.4656426 35.9169889 12.4656426"></polygon>
                <path d="M42.2072341,18.1344999 L43.5382817,18.1344999 L41.2449861,12.4656426 L40.0869195,12.4656426 L37.8649705,18.1344999 L39.166621,18.1344999 L39.5555856,17.0596846 L41.8114669,17.0596846 L42.2072341,18.1344999 Z M40.6781813,13.9637597 L41.4257416,15.9907001 L39.9382335,15.9907001 L40.6781813,13.9637597 Z" id="Shape"></path>
                <polygon id="Path" points="47.6227743 12.4656426 43.243825 12.4656426 43.243825 13.6038682 44.8200103 13.6038682 44.8200103 18.1344999 46.0465891 18.1344999 46.0465891 13.6038682 47.6227744 13.6038682"></polygon>
                <polygon id="Path" points="49.6716613 16.9933589 49.6716613 15.8287327 51.638107 15.8287327 51.638107 14.7184465 49.6716613 14.7184465 49.6716613 13.5986851 51.8486645 13.5986851 51.8486645 12.4656425 48.4451635 12.4656425 48.4451635 18.1344998 51.9377466 18.1344998 51.9377466 16.9933588"></polygon>
                <path d="M54.8531589,18.2471482 C56.0266933,18.2471482 57.0021417,17.653052 57.0021417,16.4287408 C57.0021417,15.1587548 55.9169604,14.8893221 55.0527026,14.6706661 C54.4526946,14.5270821 53.9601518,14.4063354 53.9601518,14.0073288 C53.9601518,13.6362616 54.3628836,13.4676535 54.7604325,13.4676535 C55.2190431,13.4676535 55.6217748,13.6965944 55.6217748,14.184764 L56.8336146,14.184764 C56.8336146,13.0553656 56.0929378,12.3596348 54.7898295,12.3596348 C53.5345825,12.3596348 52.7335729,12.9721953 52.7335729,14.0595631 C52.7335729,15.280959 53.7717027,15.529093 54.6264043,15.7396505 C55.2411514,15.8831536 55.7579893,16.0039003 55.7579893,16.4433987 C55.7579893,16.8660526 55.3066673,17.1097324 54.8450604,17.1097324 C54.3436904,17.1097324 53.8909107,16.8454017 53.8909107,16.2976281 L52.6548568,16.2976281 C52.6548568,17.5161086 53.551508,18.2471482 54.8531586,18.2471482 L54.8531589,18.2471482 Z" id="Path"></path>
            </g>
        </g>
    </g>
</svg>